G04 EAGLE Gerber RS-274X export*
G75*
%MOMM*%
%FSLAX34Y34*%
%LPD*%
%INSolderpaste Bottom*%
%IPPOS*%
%AMOC8*
5,1,8,0,0,1.08239X$1,22.5*%
G01*
%ADD10R,1.164600X1.465300*%
%ADD11R,1.465300X1.164600*%
%ADD12R,0.600000X1.200000*%
%ADD13R,1.050000X0.600000*%
%ADD14R,0.973900X0.798700*%
%ADD15R,0.798700X0.973900*%


D10*
X90554Y-392990D03*
X73046Y-392990D03*
X73046Y-418390D03*
X90554Y-418390D03*
D11*
X-196330Y-264584D03*
X-196330Y-247076D03*
D10*
X78274Y225400D03*
X60766Y225400D03*
D11*
X131500Y121184D03*
X131500Y103676D03*
X123710Y-295336D03*
X123710Y-312844D03*
X29730Y-352214D03*
X29730Y-334706D03*
X155460Y-400746D03*
X155460Y-418254D03*
X-196330Y-303954D03*
X-196330Y-286446D03*
X3060Y77046D03*
X3060Y94554D03*
X60210Y-352214D03*
X60210Y-334706D03*
X93230Y-352214D03*
X93230Y-334706D03*
X-259300Y-428046D03*
X-259300Y-445554D03*
X-229720Y-427856D03*
X-229720Y-445364D03*
X-204790Y-445294D03*
X-204790Y-427786D03*
D10*
X-154176Y-393870D03*
X-171684Y-393870D03*
X-120266Y-392990D03*
X-137774Y-392990D03*
X-120266Y-367590D03*
X-137774Y-367590D03*
X-221594Y-406960D03*
X-204086Y-406960D03*
X-221594Y-384100D03*
X-204086Y-384100D03*
X-213974Y-361240D03*
X-196466Y-361240D03*
X-9776Y225500D03*
X-27284Y225500D03*
X34674Y225500D03*
X17166Y225500D03*
X-54226Y225500D03*
X-71734Y225500D03*
D11*
X111010Y266276D03*
X111010Y283784D03*
D10*
X23516Y352500D03*
X41024Y352500D03*
X-117726Y296620D03*
X-135234Y296620D03*
D11*
X138950Y266276D03*
X138950Y283784D03*
X64160Y380106D03*
X64160Y397614D03*
X93370Y380106D03*
X93370Y397614D03*
D10*
X-36174Y355040D03*
X-18666Y355040D03*
X-79354Y353770D03*
X-61846Y353770D03*
D11*
X-101080Y379306D03*
X-101080Y396814D03*
X-70600Y378036D03*
X-70600Y395544D03*
D10*
X85474Y356310D03*
X67966Y356310D03*
D11*
X-151080Y-56576D03*
X-151080Y-74084D03*
X-179020Y-74084D03*
X-179020Y-56576D03*
X193560Y-75354D03*
X193560Y-57846D03*
X155460Y-57846D03*
X155460Y-75354D03*
X-206960Y-74084D03*
X-206960Y-56576D03*
X238010Y-75354D03*
X238010Y-57846D03*
X174510Y-313116D03*
X174510Y-330624D03*
D10*
X-160634Y-246940D03*
X-143126Y-246940D03*
D11*
X-57900Y-316654D03*
X-57900Y-299146D03*
X315480Y366606D03*
X315480Y384114D03*
X278650Y403436D03*
X278650Y420944D03*
X-300470Y381846D03*
X-300470Y399354D03*
X-273800Y409786D03*
X-273800Y427294D03*
D12*
X138220Y-355990D03*
X128720Y-355990D03*
X119220Y-355990D03*
X119220Y-330990D03*
X138220Y-330990D03*
D13*
X-89220Y-72290D03*
X-89220Y-53290D03*
X-67220Y-62790D03*
X-40960Y-72290D03*
X-40960Y-53290D03*
X-18960Y-62790D03*
X18730Y-72290D03*
X18730Y-53290D03*
X40730Y-62790D03*
X69530Y-72290D03*
X69530Y-53290D03*
X91530Y-62790D03*
D14*
X-83300Y-436376D03*
X-83300Y-452680D03*
D15*
X81240Y-143650D03*
X97544Y-143650D03*
X47560Y-143470D03*
X63864Y-143470D03*
X-60770Y-143400D03*
X-77074Y-143400D03*
X-94780Y-144380D03*
X-111084Y-144380D03*
D14*
X65550Y421936D03*
X65550Y438240D03*
X98850Y463980D03*
X98850Y480284D03*
D15*
X-133300Y255530D03*
X-116996Y255530D03*
D14*
X149560Y360714D03*
X149560Y344410D03*
D15*
X-91686Y-180350D03*
X-107990Y-180350D03*
M02*
