G04 EAGLE Gerber RS-274X export*
G75*
%MOMM*%
%FSLAX34Y34*%
%LPD*%
%INSoldermask Top*%
%IPPOS*%
%AMOC8*
5,1,8,0,0,1.08239X$1,22.5*%
G01*
%ADD10C,1.203200*%
%ADD11R,1.668500X1.367800*%
%ADD12R,1.367800X1.668500*%
%ADD13C,1.000000*%
%ADD14C,0.505344*%
%ADD15R,0.703200X1.278200*%
%ADD16R,1.853200X1.853200*%
%ADD17C,1.853200*%
%ADD18R,0.653200X0.603200*%
%ADD19R,1.003200X2.103200*%
%ADD20R,1.253200X0.553200*%
%ADD21R,0.903200X2.553200*%
%ADD22R,0.853200X1.453200*%
%ADD23R,0.853200X1.731200*%
%ADD24R,0.953200X0.403200*%
%ADD25R,0.403200X0.953200*%
%ADD26R,1.793200X1.953200*%
%ADD27R,0.803200X0.443200*%
%ADD28R,0.443200X0.803200*%
%ADD29R,3.393200X2.393200*%
%ADD30R,1.653200X0.503200*%
%ADD31R,0.503200X1.653200*%
%ADD32C,1.551200*%
%ADD33C,1.727200*%
%ADD34P,1.869504X8X22.500000*%
%ADD35C,2.082800*%
%ADD36C,1.625600*%
%ADD37R,2.403200X1.603200*%
%ADD38R,1.603200X2.403200*%
%ADD39R,1.503200X1.703200*%
%ADD40R,1.503200X1.503200*%
%ADD41R,1.003200X1.003200*%
%ADD42R,0.903200X1.728200*%
%ADD43R,1.253200X0.803200*%
%ADD44R,0.803200X1.253200*%
%ADD45C,1.838200*%
%ADD46R,1.001900X1.177100*%
%ADD47R,1.177100X1.001900*%
%ADD48R,1.103200X1.203200*%
%ADD49R,1.903200X1.003200*%
%ADD50P,1.869504X8X292.500000*%
%ADD51C,0.959600*%


D10*
X-258580Y125080D03*
X-258580Y274920D03*
X261120Y277460D03*
X261120Y122540D03*
X261120Y-122540D03*
X261120Y-281270D03*
X-259850Y-274920D03*
X-259850Y-122540D03*
D11*
X81800Y-415714D03*
X81800Y-398206D03*
D12*
X85746Y98500D03*
X103254Y98500D03*
X85746Y130250D03*
X103254Y130250D03*
D11*
X130060Y-351216D03*
X130060Y-368724D03*
D12*
X111146Y-434900D03*
X128654Y-434900D03*
X-135506Y-392990D03*
X-153014Y-392990D03*
D11*
X-27420Y-151826D03*
X-27420Y-169334D03*
X-136640Y261196D03*
X-136640Y278704D03*
D12*
X-61574Y116280D03*
X-44066Y116280D03*
X-44066Y148030D03*
X-61574Y148030D03*
X42566Y121360D03*
X60074Y121360D03*
X42566Y150570D03*
X60074Y150570D03*
D11*
X94500Y-215326D03*
X94500Y-232834D03*
X52590Y-154366D03*
X52590Y-171874D03*
X86880Y-155636D03*
X86880Y-173144D03*
D12*
X-91056Y-258370D03*
X-108564Y-258370D03*
X-91056Y-283770D03*
X-108564Y-283770D03*
D11*
X-750Y301836D03*
X-750Y319344D03*
D12*
X-154284Y-337110D03*
X-136776Y-337110D03*
X-214246Y-396800D03*
X-231754Y-396800D03*
X-136776Y-367590D03*
X-154284Y-367590D03*
X-101216Y-338380D03*
X-118724Y-338380D03*
D11*
X-53380Y-155636D03*
X-53380Y-173144D03*
D12*
X-91056Y-224080D03*
X-108564Y-224080D03*
D13*
X199610Y337300D02*
X199612Y337441D01*
X199618Y337582D01*
X199628Y337722D01*
X199642Y337862D01*
X199660Y338002D01*
X199681Y338141D01*
X199707Y338280D01*
X199736Y338418D01*
X199770Y338554D01*
X199807Y338690D01*
X199848Y338825D01*
X199893Y338959D01*
X199942Y339091D01*
X199994Y339222D01*
X200050Y339351D01*
X200110Y339478D01*
X200173Y339604D01*
X200239Y339728D01*
X200310Y339851D01*
X200383Y339971D01*
X200460Y340089D01*
X200540Y340205D01*
X200624Y340318D01*
X200710Y340429D01*
X200800Y340538D01*
X200893Y340644D01*
X200988Y340747D01*
X201087Y340848D01*
X201188Y340946D01*
X201292Y341041D01*
X201399Y341133D01*
X201508Y341222D01*
X201620Y341307D01*
X201734Y341390D01*
X201850Y341470D01*
X201969Y341546D01*
X202090Y341618D01*
X202212Y341688D01*
X202337Y341753D01*
X202463Y341816D01*
X202591Y341874D01*
X202721Y341929D01*
X202852Y341981D01*
X202985Y342028D01*
X203119Y342072D01*
X203254Y342113D01*
X203390Y342149D01*
X203527Y342181D01*
X203665Y342210D01*
X203803Y342235D01*
X203943Y342255D01*
X204083Y342272D01*
X204223Y342285D01*
X204364Y342294D01*
X204504Y342299D01*
X204645Y342300D01*
X204786Y342297D01*
X204927Y342290D01*
X205067Y342279D01*
X205207Y342264D01*
X205347Y342245D01*
X205486Y342223D01*
X205624Y342196D01*
X205762Y342166D01*
X205898Y342131D01*
X206034Y342093D01*
X206168Y342051D01*
X206302Y342005D01*
X206434Y341956D01*
X206564Y341902D01*
X206693Y341845D01*
X206820Y341785D01*
X206946Y341721D01*
X207069Y341653D01*
X207191Y341582D01*
X207311Y341508D01*
X207428Y341430D01*
X207543Y341349D01*
X207656Y341265D01*
X207767Y341178D01*
X207875Y341087D01*
X207980Y340994D01*
X208083Y340897D01*
X208183Y340798D01*
X208280Y340696D01*
X208374Y340591D01*
X208465Y340484D01*
X208553Y340374D01*
X208638Y340262D01*
X208720Y340147D01*
X208799Y340030D01*
X208874Y339911D01*
X208946Y339790D01*
X209014Y339667D01*
X209079Y339542D01*
X209141Y339415D01*
X209198Y339286D01*
X209253Y339156D01*
X209303Y339025D01*
X209350Y338892D01*
X209393Y338758D01*
X209432Y338622D01*
X209467Y338486D01*
X209499Y338349D01*
X209526Y338211D01*
X209550Y338072D01*
X209570Y337932D01*
X209586Y337792D01*
X209598Y337652D01*
X209606Y337511D01*
X209610Y337370D01*
X209610Y337230D01*
X209606Y337089D01*
X209598Y336948D01*
X209586Y336808D01*
X209570Y336668D01*
X209550Y336528D01*
X209526Y336389D01*
X209499Y336251D01*
X209467Y336114D01*
X209432Y335978D01*
X209393Y335842D01*
X209350Y335708D01*
X209303Y335575D01*
X209253Y335444D01*
X209198Y335314D01*
X209141Y335185D01*
X209079Y335058D01*
X209014Y334933D01*
X208946Y334810D01*
X208874Y334689D01*
X208799Y334570D01*
X208720Y334453D01*
X208638Y334338D01*
X208553Y334226D01*
X208465Y334116D01*
X208374Y334009D01*
X208280Y333904D01*
X208183Y333802D01*
X208083Y333703D01*
X207980Y333606D01*
X207875Y333513D01*
X207767Y333422D01*
X207656Y333335D01*
X207543Y333251D01*
X207428Y333170D01*
X207311Y333092D01*
X207191Y333018D01*
X207069Y332947D01*
X206946Y332879D01*
X206820Y332815D01*
X206693Y332755D01*
X206564Y332698D01*
X206434Y332644D01*
X206302Y332595D01*
X206168Y332549D01*
X206034Y332507D01*
X205898Y332469D01*
X205762Y332434D01*
X205624Y332404D01*
X205486Y332377D01*
X205347Y332355D01*
X205207Y332336D01*
X205067Y332321D01*
X204927Y332310D01*
X204786Y332303D01*
X204645Y332300D01*
X204504Y332301D01*
X204364Y332306D01*
X204223Y332315D01*
X204083Y332328D01*
X203943Y332345D01*
X203803Y332365D01*
X203665Y332390D01*
X203527Y332419D01*
X203390Y332451D01*
X203254Y332487D01*
X203119Y332528D01*
X202985Y332572D01*
X202852Y332619D01*
X202721Y332671D01*
X202591Y332726D01*
X202463Y332784D01*
X202337Y332847D01*
X202212Y332912D01*
X202090Y332982D01*
X201969Y333054D01*
X201850Y333130D01*
X201734Y333210D01*
X201620Y333293D01*
X201508Y333378D01*
X201399Y333467D01*
X201292Y333559D01*
X201188Y333654D01*
X201087Y333752D01*
X200988Y333853D01*
X200893Y333956D01*
X200800Y334062D01*
X200710Y334171D01*
X200624Y334282D01*
X200540Y334395D01*
X200460Y334511D01*
X200383Y334629D01*
X200310Y334749D01*
X200239Y334872D01*
X200173Y334996D01*
X200110Y335122D01*
X200050Y335249D01*
X199994Y335378D01*
X199942Y335509D01*
X199893Y335641D01*
X199848Y335775D01*
X199807Y335910D01*
X199770Y336046D01*
X199736Y336182D01*
X199707Y336320D01*
X199681Y336459D01*
X199660Y336598D01*
X199642Y336738D01*
X199628Y336878D01*
X199618Y337018D01*
X199612Y337159D01*
X199610Y337300D01*
X199610Y362700D02*
X199612Y362841D01*
X199618Y362982D01*
X199628Y363122D01*
X199642Y363262D01*
X199660Y363402D01*
X199681Y363541D01*
X199707Y363680D01*
X199736Y363818D01*
X199770Y363954D01*
X199807Y364090D01*
X199848Y364225D01*
X199893Y364359D01*
X199942Y364491D01*
X199994Y364622D01*
X200050Y364751D01*
X200110Y364878D01*
X200173Y365004D01*
X200239Y365128D01*
X200310Y365251D01*
X200383Y365371D01*
X200460Y365489D01*
X200540Y365605D01*
X200624Y365718D01*
X200710Y365829D01*
X200800Y365938D01*
X200893Y366044D01*
X200988Y366147D01*
X201087Y366248D01*
X201188Y366346D01*
X201292Y366441D01*
X201399Y366533D01*
X201508Y366622D01*
X201620Y366707D01*
X201734Y366790D01*
X201850Y366870D01*
X201969Y366946D01*
X202090Y367018D01*
X202212Y367088D01*
X202337Y367153D01*
X202463Y367216D01*
X202591Y367274D01*
X202721Y367329D01*
X202852Y367381D01*
X202985Y367428D01*
X203119Y367472D01*
X203254Y367513D01*
X203390Y367549D01*
X203527Y367581D01*
X203665Y367610D01*
X203803Y367635D01*
X203943Y367655D01*
X204083Y367672D01*
X204223Y367685D01*
X204364Y367694D01*
X204504Y367699D01*
X204645Y367700D01*
X204786Y367697D01*
X204927Y367690D01*
X205067Y367679D01*
X205207Y367664D01*
X205347Y367645D01*
X205486Y367623D01*
X205624Y367596D01*
X205762Y367566D01*
X205898Y367531D01*
X206034Y367493D01*
X206168Y367451D01*
X206302Y367405D01*
X206434Y367356D01*
X206564Y367302D01*
X206693Y367245D01*
X206820Y367185D01*
X206946Y367121D01*
X207069Y367053D01*
X207191Y366982D01*
X207311Y366908D01*
X207428Y366830D01*
X207543Y366749D01*
X207656Y366665D01*
X207767Y366578D01*
X207875Y366487D01*
X207980Y366394D01*
X208083Y366297D01*
X208183Y366198D01*
X208280Y366096D01*
X208374Y365991D01*
X208465Y365884D01*
X208553Y365774D01*
X208638Y365662D01*
X208720Y365547D01*
X208799Y365430D01*
X208874Y365311D01*
X208946Y365190D01*
X209014Y365067D01*
X209079Y364942D01*
X209141Y364815D01*
X209198Y364686D01*
X209253Y364556D01*
X209303Y364425D01*
X209350Y364292D01*
X209393Y364158D01*
X209432Y364022D01*
X209467Y363886D01*
X209499Y363749D01*
X209526Y363611D01*
X209550Y363472D01*
X209570Y363332D01*
X209586Y363192D01*
X209598Y363052D01*
X209606Y362911D01*
X209610Y362770D01*
X209610Y362630D01*
X209606Y362489D01*
X209598Y362348D01*
X209586Y362208D01*
X209570Y362068D01*
X209550Y361928D01*
X209526Y361789D01*
X209499Y361651D01*
X209467Y361514D01*
X209432Y361378D01*
X209393Y361242D01*
X209350Y361108D01*
X209303Y360975D01*
X209253Y360844D01*
X209198Y360714D01*
X209141Y360585D01*
X209079Y360458D01*
X209014Y360333D01*
X208946Y360210D01*
X208874Y360089D01*
X208799Y359970D01*
X208720Y359853D01*
X208638Y359738D01*
X208553Y359626D01*
X208465Y359516D01*
X208374Y359409D01*
X208280Y359304D01*
X208183Y359202D01*
X208083Y359103D01*
X207980Y359006D01*
X207875Y358913D01*
X207767Y358822D01*
X207656Y358735D01*
X207543Y358651D01*
X207428Y358570D01*
X207311Y358492D01*
X207191Y358418D01*
X207069Y358347D01*
X206946Y358279D01*
X206820Y358215D01*
X206693Y358155D01*
X206564Y358098D01*
X206434Y358044D01*
X206302Y357995D01*
X206168Y357949D01*
X206034Y357907D01*
X205898Y357869D01*
X205762Y357834D01*
X205624Y357804D01*
X205486Y357777D01*
X205347Y357755D01*
X205207Y357736D01*
X205067Y357721D01*
X204927Y357710D01*
X204786Y357703D01*
X204645Y357700D01*
X204504Y357701D01*
X204364Y357706D01*
X204223Y357715D01*
X204083Y357728D01*
X203943Y357745D01*
X203803Y357765D01*
X203665Y357790D01*
X203527Y357819D01*
X203390Y357851D01*
X203254Y357887D01*
X203119Y357928D01*
X202985Y357972D01*
X202852Y358019D01*
X202721Y358071D01*
X202591Y358126D01*
X202463Y358184D01*
X202337Y358247D01*
X202212Y358312D01*
X202090Y358382D01*
X201969Y358454D01*
X201850Y358530D01*
X201734Y358610D01*
X201620Y358693D01*
X201508Y358778D01*
X201399Y358867D01*
X201292Y358959D01*
X201188Y359054D01*
X201087Y359152D01*
X200988Y359253D01*
X200893Y359356D01*
X200800Y359462D01*
X200710Y359571D01*
X200624Y359682D01*
X200540Y359795D01*
X200460Y359911D01*
X200383Y360029D01*
X200310Y360149D01*
X200239Y360272D01*
X200173Y360396D01*
X200110Y360522D01*
X200050Y360649D01*
X199994Y360778D01*
X199942Y360909D01*
X199893Y361041D01*
X199848Y361175D01*
X199807Y361310D01*
X199770Y361446D01*
X199736Y361582D01*
X199707Y361720D01*
X199681Y361859D01*
X199660Y361998D01*
X199642Y362138D01*
X199628Y362278D01*
X199618Y362418D01*
X199612Y362559D01*
X199610Y362700D01*
D14*
X-48060Y-110850D02*
X-55040Y-110850D01*
X-55040Y-103870D01*
X-48060Y-103870D01*
X-48060Y-110850D01*
X-48060Y-106050D02*
X-55040Y-106050D01*
X-55040Y-128390D02*
X-48060Y-128390D01*
X-55040Y-128390D02*
X-55040Y-121410D01*
X-48060Y-121410D01*
X-48060Y-128390D01*
X-48060Y-123590D02*
X-55040Y-123590D01*
X-15670Y-110850D02*
X-8690Y-110850D01*
X-15670Y-110850D02*
X-15670Y-103870D01*
X-8690Y-103870D01*
X-8690Y-110850D01*
X-8690Y-106050D02*
X-15670Y-106050D01*
X-15670Y-128390D02*
X-8690Y-128390D01*
X-15670Y-128390D02*
X-15670Y-121410D01*
X-8690Y-121410D01*
X-8690Y-128390D01*
X-8690Y-123590D02*
X-15670Y-123590D01*
X11000Y-110850D02*
X17980Y-110850D01*
X11000Y-110850D02*
X11000Y-103870D01*
X17980Y-103870D01*
X17980Y-110850D01*
X17980Y-106050D02*
X11000Y-106050D01*
X11000Y-128390D02*
X17980Y-128390D01*
X11000Y-128390D02*
X11000Y-121410D01*
X17980Y-121410D01*
X17980Y-128390D01*
X17980Y-123590D02*
X11000Y-123590D01*
D13*
X119302Y431964D02*
X119304Y432105D01*
X119310Y432246D01*
X119320Y432386D01*
X119334Y432526D01*
X119352Y432666D01*
X119373Y432805D01*
X119399Y432944D01*
X119428Y433082D01*
X119462Y433218D01*
X119499Y433354D01*
X119540Y433489D01*
X119585Y433623D01*
X119634Y433755D01*
X119686Y433886D01*
X119742Y434015D01*
X119802Y434142D01*
X119865Y434268D01*
X119931Y434392D01*
X120002Y434515D01*
X120075Y434635D01*
X120152Y434753D01*
X120232Y434869D01*
X120316Y434982D01*
X120402Y435093D01*
X120492Y435202D01*
X120585Y435308D01*
X120680Y435411D01*
X120779Y435512D01*
X120880Y435610D01*
X120984Y435705D01*
X121091Y435797D01*
X121200Y435886D01*
X121312Y435971D01*
X121426Y436054D01*
X121542Y436134D01*
X121661Y436210D01*
X121782Y436282D01*
X121904Y436352D01*
X122029Y436417D01*
X122155Y436480D01*
X122283Y436538D01*
X122413Y436593D01*
X122544Y436645D01*
X122677Y436692D01*
X122811Y436736D01*
X122946Y436777D01*
X123082Y436813D01*
X123219Y436845D01*
X123357Y436874D01*
X123495Y436899D01*
X123635Y436919D01*
X123775Y436936D01*
X123915Y436949D01*
X124056Y436958D01*
X124196Y436963D01*
X124337Y436964D01*
X124478Y436961D01*
X124619Y436954D01*
X124759Y436943D01*
X124899Y436928D01*
X125039Y436909D01*
X125178Y436887D01*
X125316Y436860D01*
X125454Y436830D01*
X125590Y436795D01*
X125726Y436757D01*
X125860Y436715D01*
X125994Y436669D01*
X126126Y436620D01*
X126256Y436566D01*
X126385Y436509D01*
X126512Y436449D01*
X126638Y436385D01*
X126761Y436317D01*
X126883Y436246D01*
X127003Y436172D01*
X127120Y436094D01*
X127235Y436013D01*
X127348Y435929D01*
X127459Y435842D01*
X127567Y435751D01*
X127672Y435658D01*
X127775Y435561D01*
X127875Y435462D01*
X127972Y435360D01*
X128066Y435255D01*
X128157Y435148D01*
X128245Y435038D01*
X128330Y434926D01*
X128412Y434811D01*
X128491Y434694D01*
X128566Y434575D01*
X128638Y434454D01*
X128706Y434331D01*
X128771Y434206D01*
X128833Y434079D01*
X128890Y433950D01*
X128945Y433820D01*
X128995Y433689D01*
X129042Y433556D01*
X129085Y433422D01*
X129124Y433286D01*
X129159Y433150D01*
X129191Y433013D01*
X129218Y432875D01*
X129242Y432736D01*
X129262Y432596D01*
X129278Y432456D01*
X129290Y432316D01*
X129298Y432175D01*
X129302Y432034D01*
X129302Y431894D01*
X129298Y431753D01*
X129290Y431612D01*
X129278Y431472D01*
X129262Y431332D01*
X129242Y431192D01*
X129218Y431053D01*
X129191Y430915D01*
X129159Y430778D01*
X129124Y430642D01*
X129085Y430506D01*
X129042Y430372D01*
X128995Y430239D01*
X128945Y430108D01*
X128890Y429978D01*
X128833Y429849D01*
X128771Y429722D01*
X128706Y429597D01*
X128638Y429474D01*
X128566Y429353D01*
X128491Y429234D01*
X128412Y429117D01*
X128330Y429002D01*
X128245Y428890D01*
X128157Y428780D01*
X128066Y428673D01*
X127972Y428568D01*
X127875Y428466D01*
X127775Y428367D01*
X127672Y428270D01*
X127567Y428177D01*
X127459Y428086D01*
X127348Y427999D01*
X127235Y427915D01*
X127120Y427834D01*
X127003Y427756D01*
X126883Y427682D01*
X126761Y427611D01*
X126638Y427543D01*
X126512Y427479D01*
X126385Y427419D01*
X126256Y427362D01*
X126126Y427308D01*
X125994Y427259D01*
X125860Y427213D01*
X125726Y427171D01*
X125590Y427133D01*
X125454Y427098D01*
X125316Y427068D01*
X125178Y427041D01*
X125039Y427019D01*
X124899Y427000D01*
X124759Y426985D01*
X124619Y426974D01*
X124478Y426967D01*
X124337Y426964D01*
X124196Y426965D01*
X124056Y426970D01*
X123915Y426979D01*
X123775Y426992D01*
X123635Y427009D01*
X123495Y427029D01*
X123357Y427054D01*
X123219Y427083D01*
X123082Y427115D01*
X122946Y427151D01*
X122811Y427192D01*
X122677Y427236D01*
X122544Y427283D01*
X122413Y427335D01*
X122283Y427390D01*
X122155Y427448D01*
X122029Y427511D01*
X121904Y427576D01*
X121782Y427646D01*
X121661Y427718D01*
X121542Y427794D01*
X121426Y427874D01*
X121312Y427957D01*
X121200Y428042D01*
X121091Y428131D01*
X120984Y428223D01*
X120880Y428318D01*
X120779Y428416D01*
X120680Y428517D01*
X120585Y428620D01*
X120492Y428726D01*
X120402Y428835D01*
X120316Y428946D01*
X120232Y429059D01*
X120152Y429175D01*
X120075Y429293D01*
X120002Y429413D01*
X119931Y429536D01*
X119865Y429660D01*
X119802Y429786D01*
X119742Y429913D01*
X119686Y430042D01*
X119634Y430173D01*
X119585Y430305D01*
X119540Y430439D01*
X119499Y430574D01*
X119462Y430710D01*
X119428Y430846D01*
X119399Y430984D01*
X119373Y431123D01*
X119352Y431262D01*
X119334Y431402D01*
X119320Y431542D01*
X119310Y431682D01*
X119304Y431823D01*
X119302Y431964D01*
X135898Y412736D02*
X135900Y412877D01*
X135906Y413018D01*
X135916Y413158D01*
X135930Y413298D01*
X135948Y413438D01*
X135969Y413577D01*
X135995Y413716D01*
X136024Y413854D01*
X136058Y413990D01*
X136095Y414126D01*
X136136Y414261D01*
X136181Y414395D01*
X136230Y414527D01*
X136282Y414658D01*
X136338Y414787D01*
X136398Y414914D01*
X136461Y415040D01*
X136527Y415164D01*
X136598Y415287D01*
X136671Y415407D01*
X136748Y415525D01*
X136828Y415641D01*
X136912Y415754D01*
X136998Y415865D01*
X137088Y415974D01*
X137181Y416080D01*
X137276Y416183D01*
X137375Y416284D01*
X137476Y416382D01*
X137580Y416477D01*
X137687Y416569D01*
X137796Y416658D01*
X137908Y416743D01*
X138022Y416826D01*
X138138Y416906D01*
X138257Y416982D01*
X138378Y417054D01*
X138500Y417124D01*
X138625Y417189D01*
X138751Y417252D01*
X138879Y417310D01*
X139009Y417365D01*
X139140Y417417D01*
X139273Y417464D01*
X139407Y417508D01*
X139542Y417549D01*
X139678Y417585D01*
X139815Y417617D01*
X139953Y417646D01*
X140091Y417671D01*
X140231Y417691D01*
X140371Y417708D01*
X140511Y417721D01*
X140652Y417730D01*
X140792Y417735D01*
X140933Y417736D01*
X141074Y417733D01*
X141215Y417726D01*
X141355Y417715D01*
X141495Y417700D01*
X141635Y417681D01*
X141774Y417659D01*
X141912Y417632D01*
X142050Y417602D01*
X142186Y417567D01*
X142322Y417529D01*
X142456Y417487D01*
X142590Y417441D01*
X142722Y417392D01*
X142852Y417338D01*
X142981Y417281D01*
X143108Y417221D01*
X143234Y417157D01*
X143357Y417089D01*
X143479Y417018D01*
X143599Y416944D01*
X143716Y416866D01*
X143831Y416785D01*
X143944Y416701D01*
X144055Y416614D01*
X144163Y416523D01*
X144268Y416430D01*
X144371Y416333D01*
X144471Y416234D01*
X144568Y416132D01*
X144662Y416027D01*
X144753Y415920D01*
X144841Y415810D01*
X144926Y415698D01*
X145008Y415583D01*
X145087Y415466D01*
X145162Y415347D01*
X145234Y415226D01*
X145302Y415103D01*
X145367Y414978D01*
X145429Y414851D01*
X145486Y414722D01*
X145541Y414592D01*
X145591Y414461D01*
X145638Y414328D01*
X145681Y414194D01*
X145720Y414058D01*
X145755Y413922D01*
X145787Y413785D01*
X145814Y413647D01*
X145838Y413508D01*
X145858Y413368D01*
X145874Y413228D01*
X145886Y413088D01*
X145894Y412947D01*
X145898Y412806D01*
X145898Y412666D01*
X145894Y412525D01*
X145886Y412384D01*
X145874Y412244D01*
X145858Y412104D01*
X145838Y411964D01*
X145814Y411825D01*
X145787Y411687D01*
X145755Y411550D01*
X145720Y411414D01*
X145681Y411278D01*
X145638Y411144D01*
X145591Y411011D01*
X145541Y410880D01*
X145486Y410750D01*
X145429Y410621D01*
X145367Y410494D01*
X145302Y410369D01*
X145234Y410246D01*
X145162Y410125D01*
X145087Y410006D01*
X145008Y409889D01*
X144926Y409774D01*
X144841Y409662D01*
X144753Y409552D01*
X144662Y409445D01*
X144568Y409340D01*
X144471Y409238D01*
X144371Y409139D01*
X144268Y409042D01*
X144163Y408949D01*
X144055Y408858D01*
X143944Y408771D01*
X143831Y408687D01*
X143716Y408606D01*
X143599Y408528D01*
X143479Y408454D01*
X143357Y408383D01*
X143234Y408315D01*
X143108Y408251D01*
X142981Y408191D01*
X142852Y408134D01*
X142722Y408080D01*
X142590Y408031D01*
X142456Y407985D01*
X142322Y407943D01*
X142186Y407905D01*
X142050Y407870D01*
X141912Y407840D01*
X141774Y407813D01*
X141635Y407791D01*
X141495Y407772D01*
X141355Y407757D01*
X141215Y407746D01*
X141074Y407739D01*
X140933Y407736D01*
X140792Y407737D01*
X140652Y407742D01*
X140511Y407751D01*
X140371Y407764D01*
X140231Y407781D01*
X140091Y407801D01*
X139953Y407826D01*
X139815Y407855D01*
X139678Y407887D01*
X139542Y407923D01*
X139407Y407964D01*
X139273Y408008D01*
X139140Y408055D01*
X139009Y408107D01*
X138879Y408162D01*
X138751Y408220D01*
X138625Y408283D01*
X138500Y408348D01*
X138378Y408418D01*
X138257Y408490D01*
X138138Y408566D01*
X138022Y408646D01*
X137908Y408729D01*
X137796Y408814D01*
X137687Y408903D01*
X137580Y408995D01*
X137476Y409090D01*
X137375Y409188D01*
X137276Y409289D01*
X137181Y409392D01*
X137088Y409498D01*
X136998Y409607D01*
X136912Y409718D01*
X136828Y409831D01*
X136748Y409947D01*
X136671Y410065D01*
X136598Y410185D01*
X136527Y410308D01*
X136461Y410432D01*
X136398Y410558D01*
X136338Y410685D01*
X136282Y410814D01*
X136230Y410945D01*
X136181Y411077D01*
X136136Y411211D01*
X136095Y411346D01*
X136058Y411482D01*
X136024Y411618D01*
X135995Y411756D01*
X135969Y411895D01*
X135948Y412034D01*
X135930Y412174D01*
X135916Y412314D01*
X135906Y412454D01*
X135900Y412595D01*
X135898Y412736D01*
D14*
X59890Y-110850D02*
X52910Y-110850D01*
X52910Y-103870D01*
X59890Y-103870D01*
X59890Y-110850D01*
X59890Y-106050D02*
X52910Y-106050D01*
X52910Y-128390D02*
X59890Y-128390D01*
X52910Y-128390D02*
X52910Y-121410D01*
X59890Y-121410D01*
X59890Y-128390D01*
X59890Y-123590D02*
X52910Y-123590D01*
X-257280Y-405230D02*
X-264260Y-405230D01*
X-257280Y-405230D02*
X-257280Y-412210D01*
X-264260Y-412210D01*
X-264260Y-405230D01*
X-264260Y-407410D02*
X-257280Y-407410D01*
X-257280Y-387690D02*
X-264260Y-387690D01*
X-257280Y-387690D02*
X-257280Y-394670D01*
X-264260Y-394670D01*
X-264260Y-387690D01*
X-264260Y-389870D02*
X-257280Y-389870D01*
X-279670Y-403960D02*
X-286650Y-403960D01*
X-279670Y-403960D02*
X-279670Y-410940D01*
X-286650Y-410940D01*
X-286650Y-403960D01*
X-286650Y-406140D02*
X-279670Y-406140D01*
X-279670Y-386420D02*
X-286650Y-386420D01*
X-279670Y-386420D02*
X-279670Y-393400D01*
X-286650Y-393400D01*
X-286650Y-386420D01*
X-286650Y-388600D02*
X-279670Y-388600D01*
D13*
X-204480Y337220D02*
X-204478Y337361D01*
X-204472Y337502D01*
X-204462Y337642D01*
X-204448Y337782D01*
X-204430Y337922D01*
X-204409Y338061D01*
X-204383Y338200D01*
X-204354Y338338D01*
X-204320Y338474D01*
X-204283Y338610D01*
X-204242Y338745D01*
X-204197Y338879D01*
X-204148Y339011D01*
X-204096Y339142D01*
X-204040Y339271D01*
X-203980Y339398D01*
X-203917Y339524D01*
X-203851Y339648D01*
X-203780Y339771D01*
X-203707Y339891D01*
X-203630Y340009D01*
X-203550Y340125D01*
X-203466Y340238D01*
X-203380Y340349D01*
X-203290Y340458D01*
X-203197Y340564D01*
X-203102Y340667D01*
X-203003Y340768D01*
X-202902Y340866D01*
X-202798Y340961D01*
X-202691Y341053D01*
X-202582Y341142D01*
X-202470Y341227D01*
X-202356Y341310D01*
X-202240Y341390D01*
X-202121Y341466D01*
X-202000Y341538D01*
X-201878Y341608D01*
X-201753Y341673D01*
X-201627Y341736D01*
X-201499Y341794D01*
X-201369Y341849D01*
X-201238Y341901D01*
X-201105Y341948D01*
X-200971Y341992D01*
X-200836Y342033D01*
X-200700Y342069D01*
X-200563Y342101D01*
X-200425Y342130D01*
X-200287Y342155D01*
X-200147Y342175D01*
X-200007Y342192D01*
X-199867Y342205D01*
X-199726Y342214D01*
X-199586Y342219D01*
X-199445Y342220D01*
X-199304Y342217D01*
X-199163Y342210D01*
X-199023Y342199D01*
X-198883Y342184D01*
X-198743Y342165D01*
X-198604Y342143D01*
X-198466Y342116D01*
X-198328Y342086D01*
X-198192Y342051D01*
X-198056Y342013D01*
X-197922Y341971D01*
X-197788Y341925D01*
X-197656Y341876D01*
X-197526Y341822D01*
X-197397Y341765D01*
X-197270Y341705D01*
X-197144Y341641D01*
X-197021Y341573D01*
X-196899Y341502D01*
X-196779Y341428D01*
X-196662Y341350D01*
X-196547Y341269D01*
X-196434Y341185D01*
X-196323Y341098D01*
X-196215Y341007D01*
X-196110Y340914D01*
X-196007Y340817D01*
X-195907Y340718D01*
X-195810Y340616D01*
X-195716Y340511D01*
X-195625Y340404D01*
X-195537Y340294D01*
X-195452Y340182D01*
X-195370Y340067D01*
X-195291Y339950D01*
X-195216Y339831D01*
X-195144Y339710D01*
X-195076Y339587D01*
X-195011Y339462D01*
X-194949Y339335D01*
X-194892Y339206D01*
X-194837Y339076D01*
X-194787Y338945D01*
X-194740Y338812D01*
X-194697Y338678D01*
X-194658Y338542D01*
X-194623Y338406D01*
X-194591Y338269D01*
X-194564Y338131D01*
X-194540Y337992D01*
X-194520Y337852D01*
X-194504Y337712D01*
X-194492Y337572D01*
X-194484Y337431D01*
X-194480Y337290D01*
X-194480Y337150D01*
X-194484Y337009D01*
X-194492Y336868D01*
X-194504Y336728D01*
X-194520Y336588D01*
X-194540Y336448D01*
X-194564Y336309D01*
X-194591Y336171D01*
X-194623Y336034D01*
X-194658Y335898D01*
X-194697Y335762D01*
X-194740Y335628D01*
X-194787Y335495D01*
X-194837Y335364D01*
X-194892Y335234D01*
X-194949Y335105D01*
X-195011Y334978D01*
X-195076Y334853D01*
X-195144Y334730D01*
X-195216Y334609D01*
X-195291Y334490D01*
X-195370Y334373D01*
X-195452Y334258D01*
X-195537Y334146D01*
X-195625Y334036D01*
X-195716Y333929D01*
X-195810Y333824D01*
X-195907Y333722D01*
X-196007Y333623D01*
X-196110Y333526D01*
X-196215Y333433D01*
X-196323Y333342D01*
X-196434Y333255D01*
X-196547Y333171D01*
X-196662Y333090D01*
X-196779Y333012D01*
X-196899Y332938D01*
X-197021Y332867D01*
X-197144Y332799D01*
X-197270Y332735D01*
X-197397Y332675D01*
X-197526Y332618D01*
X-197656Y332564D01*
X-197788Y332515D01*
X-197922Y332469D01*
X-198056Y332427D01*
X-198192Y332389D01*
X-198328Y332354D01*
X-198466Y332324D01*
X-198604Y332297D01*
X-198743Y332275D01*
X-198883Y332256D01*
X-199023Y332241D01*
X-199163Y332230D01*
X-199304Y332223D01*
X-199445Y332220D01*
X-199586Y332221D01*
X-199726Y332226D01*
X-199867Y332235D01*
X-200007Y332248D01*
X-200147Y332265D01*
X-200287Y332285D01*
X-200425Y332310D01*
X-200563Y332339D01*
X-200700Y332371D01*
X-200836Y332407D01*
X-200971Y332448D01*
X-201105Y332492D01*
X-201238Y332539D01*
X-201369Y332591D01*
X-201499Y332646D01*
X-201627Y332704D01*
X-201753Y332767D01*
X-201878Y332832D01*
X-202000Y332902D01*
X-202121Y332974D01*
X-202240Y333050D01*
X-202356Y333130D01*
X-202470Y333213D01*
X-202582Y333298D01*
X-202691Y333387D01*
X-202798Y333479D01*
X-202902Y333574D01*
X-203003Y333672D01*
X-203102Y333773D01*
X-203197Y333876D01*
X-203290Y333982D01*
X-203380Y334091D01*
X-203466Y334202D01*
X-203550Y334315D01*
X-203630Y334431D01*
X-203707Y334549D01*
X-203780Y334669D01*
X-203851Y334792D01*
X-203917Y334916D01*
X-203980Y335042D01*
X-204040Y335169D01*
X-204096Y335298D01*
X-204148Y335429D01*
X-204197Y335561D01*
X-204242Y335695D01*
X-204283Y335830D01*
X-204320Y335966D01*
X-204354Y336102D01*
X-204383Y336240D01*
X-204409Y336379D01*
X-204430Y336518D01*
X-204448Y336658D01*
X-204462Y336798D01*
X-204472Y336938D01*
X-204478Y337079D01*
X-204480Y337220D01*
X-204480Y362620D02*
X-204478Y362761D01*
X-204472Y362902D01*
X-204462Y363042D01*
X-204448Y363182D01*
X-204430Y363322D01*
X-204409Y363461D01*
X-204383Y363600D01*
X-204354Y363738D01*
X-204320Y363874D01*
X-204283Y364010D01*
X-204242Y364145D01*
X-204197Y364279D01*
X-204148Y364411D01*
X-204096Y364542D01*
X-204040Y364671D01*
X-203980Y364798D01*
X-203917Y364924D01*
X-203851Y365048D01*
X-203780Y365171D01*
X-203707Y365291D01*
X-203630Y365409D01*
X-203550Y365525D01*
X-203466Y365638D01*
X-203380Y365749D01*
X-203290Y365858D01*
X-203197Y365964D01*
X-203102Y366067D01*
X-203003Y366168D01*
X-202902Y366266D01*
X-202798Y366361D01*
X-202691Y366453D01*
X-202582Y366542D01*
X-202470Y366627D01*
X-202356Y366710D01*
X-202240Y366790D01*
X-202121Y366866D01*
X-202000Y366938D01*
X-201878Y367008D01*
X-201753Y367073D01*
X-201627Y367136D01*
X-201499Y367194D01*
X-201369Y367249D01*
X-201238Y367301D01*
X-201105Y367348D01*
X-200971Y367392D01*
X-200836Y367433D01*
X-200700Y367469D01*
X-200563Y367501D01*
X-200425Y367530D01*
X-200287Y367555D01*
X-200147Y367575D01*
X-200007Y367592D01*
X-199867Y367605D01*
X-199726Y367614D01*
X-199586Y367619D01*
X-199445Y367620D01*
X-199304Y367617D01*
X-199163Y367610D01*
X-199023Y367599D01*
X-198883Y367584D01*
X-198743Y367565D01*
X-198604Y367543D01*
X-198466Y367516D01*
X-198328Y367486D01*
X-198192Y367451D01*
X-198056Y367413D01*
X-197922Y367371D01*
X-197788Y367325D01*
X-197656Y367276D01*
X-197526Y367222D01*
X-197397Y367165D01*
X-197270Y367105D01*
X-197144Y367041D01*
X-197021Y366973D01*
X-196899Y366902D01*
X-196779Y366828D01*
X-196662Y366750D01*
X-196547Y366669D01*
X-196434Y366585D01*
X-196323Y366498D01*
X-196215Y366407D01*
X-196110Y366314D01*
X-196007Y366217D01*
X-195907Y366118D01*
X-195810Y366016D01*
X-195716Y365911D01*
X-195625Y365804D01*
X-195537Y365694D01*
X-195452Y365582D01*
X-195370Y365467D01*
X-195291Y365350D01*
X-195216Y365231D01*
X-195144Y365110D01*
X-195076Y364987D01*
X-195011Y364862D01*
X-194949Y364735D01*
X-194892Y364606D01*
X-194837Y364476D01*
X-194787Y364345D01*
X-194740Y364212D01*
X-194697Y364078D01*
X-194658Y363942D01*
X-194623Y363806D01*
X-194591Y363669D01*
X-194564Y363531D01*
X-194540Y363392D01*
X-194520Y363252D01*
X-194504Y363112D01*
X-194492Y362972D01*
X-194484Y362831D01*
X-194480Y362690D01*
X-194480Y362550D01*
X-194484Y362409D01*
X-194492Y362268D01*
X-194504Y362128D01*
X-194520Y361988D01*
X-194540Y361848D01*
X-194564Y361709D01*
X-194591Y361571D01*
X-194623Y361434D01*
X-194658Y361298D01*
X-194697Y361162D01*
X-194740Y361028D01*
X-194787Y360895D01*
X-194837Y360764D01*
X-194892Y360634D01*
X-194949Y360505D01*
X-195011Y360378D01*
X-195076Y360253D01*
X-195144Y360130D01*
X-195216Y360009D01*
X-195291Y359890D01*
X-195370Y359773D01*
X-195452Y359658D01*
X-195537Y359546D01*
X-195625Y359436D01*
X-195716Y359329D01*
X-195810Y359224D01*
X-195907Y359122D01*
X-196007Y359023D01*
X-196110Y358926D01*
X-196215Y358833D01*
X-196323Y358742D01*
X-196434Y358655D01*
X-196547Y358571D01*
X-196662Y358490D01*
X-196779Y358412D01*
X-196899Y358338D01*
X-197021Y358267D01*
X-197144Y358199D01*
X-197270Y358135D01*
X-197397Y358075D01*
X-197526Y358018D01*
X-197656Y357964D01*
X-197788Y357915D01*
X-197922Y357869D01*
X-198056Y357827D01*
X-198192Y357789D01*
X-198328Y357754D01*
X-198466Y357724D01*
X-198604Y357697D01*
X-198743Y357675D01*
X-198883Y357656D01*
X-199023Y357641D01*
X-199163Y357630D01*
X-199304Y357623D01*
X-199445Y357620D01*
X-199586Y357621D01*
X-199726Y357626D01*
X-199867Y357635D01*
X-200007Y357648D01*
X-200147Y357665D01*
X-200287Y357685D01*
X-200425Y357710D01*
X-200563Y357739D01*
X-200700Y357771D01*
X-200836Y357807D01*
X-200971Y357848D01*
X-201105Y357892D01*
X-201238Y357939D01*
X-201369Y357991D01*
X-201499Y358046D01*
X-201627Y358104D01*
X-201753Y358167D01*
X-201878Y358232D01*
X-202000Y358302D01*
X-202121Y358374D01*
X-202240Y358450D01*
X-202356Y358530D01*
X-202470Y358613D01*
X-202582Y358698D01*
X-202691Y358787D01*
X-202798Y358879D01*
X-202902Y358974D01*
X-203003Y359072D01*
X-203102Y359173D01*
X-203197Y359276D01*
X-203290Y359382D01*
X-203380Y359491D01*
X-203466Y359602D01*
X-203550Y359715D01*
X-203630Y359831D01*
X-203707Y359949D01*
X-203780Y360069D01*
X-203851Y360192D01*
X-203917Y360316D01*
X-203980Y360442D01*
X-204040Y360569D01*
X-204096Y360698D01*
X-204148Y360829D01*
X-204197Y360961D01*
X-204242Y361095D01*
X-204283Y361230D01*
X-204320Y361366D01*
X-204354Y361502D01*
X-204383Y361640D01*
X-204409Y361779D01*
X-204430Y361918D01*
X-204448Y362058D01*
X-204462Y362198D01*
X-204472Y362338D01*
X-204478Y362479D01*
X-204480Y362620D01*
X-139190Y409230D02*
X-139188Y409371D01*
X-139182Y409512D01*
X-139172Y409652D01*
X-139158Y409792D01*
X-139140Y409932D01*
X-139119Y410071D01*
X-139093Y410210D01*
X-139064Y410348D01*
X-139030Y410484D01*
X-138993Y410620D01*
X-138952Y410755D01*
X-138907Y410889D01*
X-138858Y411021D01*
X-138806Y411152D01*
X-138750Y411281D01*
X-138690Y411408D01*
X-138627Y411534D01*
X-138561Y411658D01*
X-138490Y411781D01*
X-138417Y411901D01*
X-138340Y412019D01*
X-138260Y412135D01*
X-138176Y412248D01*
X-138090Y412359D01*
X-138000Y412468D01*
X-137907Y412574D01*
X-137812Y412677D01*
X-137713Y412778D01*
X-137612Y412876D01*
X-137508Y412971D01*
X-137401Y413063D01*
X-137292Y413152D01*
X-137180Y413237D01*
X-137066Y413320D01*
X-136950Y413400D01*
X-136831Y413476D01*
X-136710Y413548D01*
X-136588Y413618D01*
X-136463Y413683D01*
X-136337Y413746D01*
X-136209Y413804D01*
X-136079Y413859D01*
X-135948Y413911D01*
X-135815Y413958D01*
X-135681Y414002D01*
X-135546Y414043D01*
X-135410Y414079D01*
X-135273Y414111D01*
X-135135Y414140D01*
X-134997Y414165D01*
X-134857Y414185D01*
X-134717Y414202D01*
X-134577Y414215D01*
X-134436Y414224D01*
X-134296Y414229D01*
X-134155Y414230D01*
X-134014Y414227D01*
X-133873Y414220D01*
X-133733Y414209D01*
X-133593Y414194D01*
X-133453Y414175D01*
X-133314Y414153D01*
X-133176Y414126D01*
X-133038Y414096D01*
X-132902Y414061D01*
X-132766Y414023D01*
X-132632Y413981D01*
X-132498Y413935D01*
X-132366Y413886D01*
X-132236Y413832D01*
X-132107Y413775D01*
X-131980Y413715D01*
X-131854Y413651D01*
X-131731Y413583D01*
X-131609Y413512D01*
X-131489Y413438D01*
X-131372Y413360D01*
X-131257Y413279D01*
X-131144Y413195D01*
X-131033Y413108D01*
X-130925Y413017D01*
X-130820Y412924D01*
X-130717Y412827D01*
X-130617Y412728D01*
X-130520Y412626D01*
X-130426Y412521D01*
X-130335Y412414D01*
X-130247Y412304D01*
X-130162Y412192D01*
X-130080Y412077D01*
X-130001Y411960D01*
X-129926Y411841D01*
X-129854Y411720D01*
X-129786Y411597D01*
X-129721Y411472D01*
X-129659Y411345D01*
X-129602Y411216D01*
X-129547Y411086D01*
X-129497Y410955D01*
X-129450Y410822D01*
X-129407Y410688D01*
X-129368Y410552D01*
X-129333Y410416D01*
X-129301Y410279D01*
X-129274Y410141D01*
X-129250Y410002D01*
X-129230Y409862D01*
X-129214Y409722D01*
X-129202Y409582D01*
X-129194Y409441D01*
X-129190Y409300D01*
X-129190Y409160D01*
X-129194Y409019D01*
X-129202Y408878D01*
X-129214Y408738D01*
X-129230Y408598D01*
X-129250Y408458D01*
X-129274Y408319D01*
X-129301Y408181D01*
X-129333Y408044D01*
X-129368Y407908D01*
X-129407Y407772D01*
X-129450Y407638D01*
X-129497Y407505D01*
X-129547Y407374D01*
X-129602Y407244D01*
X-129659Y407115D01*
X-129721Y406988D01*
X-129786Y406863D01*
X-129854Y406740D01*
X-129926Y406619D01*
X-130001Y406500D01*
X-130080Y406383D01*
X-130162Y406268D01*
X-130247Y406156D01*
X-130335Y406046D01*
X-130426Y405939D01*
X-130520Y405834D01*
X-130617Y405732D01*
X-130717Y405633D01*
X-130820Y405536D01*
X-130925Y405443D01*
X-131033Y405352D01*
X-131144Y405265D01*
X-131257Y405181D01*
X-131372Y405100D01*
X-131489Y405022D01*
X-131609Y404948D01*
X-131731Y404877D01*
X-131854Y404809D01*
X-131980Y404745D01*
X-132107Y404685D01*
X-132236Y404628D01*
X-132366Y404574D01*
X-132498Y404525D01*
X-132632Y404479D01*
X-132766Y404437D01*
X-132902Y404399D01*
X-133038Y404364D01*
X-133176Y404334D01*
X-133314Y404307D01*
X-133453Y404285D01*
X-133593Y404266D01*
X-133733Y404251D01*
X-133873Y404240D01*
X-134014Y404233D01*
X-134155Y404230D01*
X-134296Y404231D01*
X-134436Y404236D01*
X-134577Y404245D01*
X-134717Y404258D01*
X-134857Y404275D01*
X-134997Y404295D01*
X-135135Y404320D01*
X-135273Y404349D01*
X-135410Y404381D01*
X-135546Y404417D01*
X-135681Y404458D01*
X-135815Y404502D01*
X-135948Y404549D01*
X-136079Y404601D01*
X-136209Y404656D01*
X-136337Y404714D01*
X-136463Y404777D01*
X-136588Y404842D01*
X-136710Y404912D01*
X-136831Y404984D01*
X-136950Y405060D01*
X-137066Y405140D01*
X-137180Y405223D01*
X-137292Y405308D01*
X-137401Y405397D01*
X-137508Y405489D01*
X-137612Y405584D01*
X-137713Y405682D01*
X-137812Y405783D01*
X-137907Y405886D01*
X-138000Y405992D01*
X-138090Y406101D01*
X-138176Y406212D01*
X-138260Y406325D01*
X-138340Y406441D01*
X-138417Y406559D01*
X-138490Y406679D01*
X-138561Y406802D01*
X-138627Y406926D01*
X-138690Y407052D01*
X-138750Y407179D01*
X-138806Y407308D01*
X-138858Y407439D01*
X-138907Y407571D01*
X-138952Y407705D01*
X-138993Y407840D01*
X-139030Y407976D01*
X-139064Y408112D01*
X-139093Y408250D01*
X-139119Y408389D01*
X-139140Y408528D01*
X-139158Y408668D01*
X-139172Y408808D01*
X-139182Y408948D01*
X-139188Y409089D01*
X-139190Y409230D01*
X-121230Y427190D02*
X-121228Y427331D01*
X-121222Y427472D01*
X-121212Y427612D01*
X-121198Y427752D01*
X-121180Y427892D01*
X-121159Y428031D01*
X-121133Y428170D01*
X-121104Y428308D01*
X-121070Y428444D01*
X-121033Y428580D01*
X-120992Y428715D01*
X-120947Y428849D01*
X-120898Y428981D01*
X-120846Y429112D01*
X-120790Y429241D01*
X-120730Y429368D01*
X-120667Y429494D01*
X-120601Y429618D01*
X-120530Y429741D01*
X-120457Y429861D01*
X-120380Y429979D01*
X-120300Y430095D01*
X-120216Y430208D01*
X-120130Y430319D01*
X-120040Y430428D01*
X-119947Y430534D01*
X-119852Y430637D01*
X-119753Y430738D01*
X-119652Y430836D01*
X-119548Y430931D01*
X-119441Y431023D01*
X-119332Y431112D01*
X-119220Y431197D01*
X-119106Y431280D01*
X-118990Y431360D01*
X-118871Y431436D01*
X-118750Y431508D01*
X-118628Y431578D01*
X-118503Y431643D01*
X-118377Y431706D01*
X-118249Y431764D01*
X-118119Y431819D01*
X-117988Y431871D01*
X-117855Y431918D01*
X-117721Y431962D01*
X-117586Y432003D01*
X-117450Y432039D01*
X-117313Y432071D01*
X-117175Y432100D01*
X-117037Y432125D01*
X-116897Y432145D01*
X-116757Y432162D01*
X-116617Y432175D01*
X-116476Y432184D01*
X-116336Y432189D01*
X-116195Y432190D01*
X-116054Y432187D01*
X-115913Y432180D01*
X-115773Y432169D01*
X-115633Y432154D01*
X-115493Y432135D01*
X-115354Y432113D01*
X-115216Y432086D01*
X-115078Y432056D01*
X-114942Y432021D01*
X-114806Y431983D01*
X-114672Y431941D01*
X-114538Y431895D01*
X-114406Y431846D01*
X-114276Y431792D01*
X-114147Y431735D01*
X-114020Y431675D01*
X-113894Y431611D01*
X-113771Y431543D01*
X-113649Y431472D01*
X-113529Y431398D01*
X-113412Y431320D01*
X-113297Y431239D01*
X-113184Y431155D01*
X-113073Y431068D01*
X-112965Y430977D01*
X-112860Y430884D01*
X-112757Y430787D01*
X-112657Y430688D01*
X-112560Y430586D01*
X-112466Y430481D01*
X-112375Y430374D01*
X-112287Y430264D01*
X-112202Y430152D01*
X-112120Y430037D01*
X-112041Y429920D01*
X-111966Y429801D01*
X-111894Y429680D01*
X-111826Y429557D01*
X-111761Y429432D01*
X-111699Y429305D01*
X-111642Y429176D01*
X-111587Y429046D01*
X-111537Y428915D01*
X-111490Y428782D01*
X-111447Y428648D01*
X-111408Y428512D01*
X-111373Y428376D01*
X-111341Y428239D01*
X-111314Y428101D01*
X-111290Y427962D01*
X-111270Y427822D01*
X-111254Y427682D01*
X-111242Y427542D01*
X-111234Y427401D01*
X-111230Y427260D01*
X-111230Y427120D01*
X-111234Y426979D01*
X-111242Y426838D01*
X-111254Y426698D01*
X-111270Y426558D01*
X-111290Y426418D01*
X-111314Y426279D01*
X-111341Y426141D01*
X-111373Y426004D01*
X-111408Y425868D01*
X-111447Y425732D01*
X-111490Y425598D01*
X-111537Y425465D01*
X-111587Y425334D01*
X-111642Y425204D01*
X-111699Y425075D01*
X-111761Y424948D01*
X-111826Y424823D01*
X-111894Y424700D01*
X-111966Y424579D01*
X-112041Y424460D01*
X-112120Y424343D01*
X-112202Y424228D01*
X-112287Y424116D01*
X-112375Y424006D01*
X-112466Y423899D01*
X-112560Y423794D01*
X-112657Y423692D01*
X-112757Y423593D01*
X-112860Y423496D01*
X-112965Y423403D01*
X-113073Y423312D01*
X-113184Y423225D01*
X-113297Y423141D01*
X-113412Y423060D01*
X-113529Y422982D01*
X-113649Y422908D01*
X-113771Y422837D01*
X-113894Y422769D01*
X-114020Y422705D01*
X-114147Y422645D01*
X-114276Y422588D01*
X-114406Y422534D01*
X-114538Y422485D01*
X-114672Y422439D01*
X-114806Y422397D01*
X-114942Y422359D01*
X-115078Y422324D01*
X-115216Y422294D01*
X-115354Y422267D01*
X-115493Y422245D01*
X-115633Y422226D01*
X-115773Y422211D01*
X-115913Y422200D01*
X-116054Y422193D01*
X-116195Y422190D01*
X-116336Y422191D01*
X-116476Y422196D01*
X-116617Y422205D01*
X-116757Y422218D01*
X-116897Y422235D01*
X-117037Y422255D01*
X-117175Y422280D01*
X-117313Y422309D01*
X-117450Y422341D01*
X-117586Y422377D01*
X-117721Y422418D01*
X-117855Y422462D01*
X-117988Y422509D01*
X-118119Y422561D01*
X-118249Y422616D01*
X-118377Y422674D01*
X-118503Y422737D01*
X-118628Y422802D01*
X-118750Y422872D01*
X-118871Y422944D01*
X-118990Y423020D01*
X-119106Y423100D01*
X-119220Y423183D01*
X-119332Y423268D01*
X-119441Y423357D01*
X-119548Y423449D01*
X-119652Y423544D01*
X-119753Y423642D01*
X-119852Y423743D01*
X-119947Y423846D01*
X-120040Y423952D01*
X-120130Y424061D01*
X-120216Y424172D01*
X-120300Y424285D01*
X-120380Y424401D01*
X-120457Y424519D01*
X-120530Y424639D01*
X-120601Y424762D01*
X-120667Y424886D01*
X-120730Y425012D01*
X-120790Y425139D01*
X-120846Y425268D01*
X-120898Y425399D01*
X-120947Y425531D01*
X-120992Y425665D01*
X-121033Y425800D01*
X-121070Y425936D01*
X-121104Y426072D01*
X-121133Y426210D01*
X-121159Y426349D01*
X-121180Y426488D01*
X-121198Y426628D01*
X-121212Y426768D01*
X-121222Y426908D01*
X-121228Y427049D01*
X-121230Y427190D01*
X-17180Y407110D02*
X-17178Y407251D01*
X-17172Y407392D01*
X-17162Y407532D01*
X-17148Y407672D01*
X-17130Y407812D01*
X-17109Y407951D01*
X-17083Y408090D01*
X-17054Y408228D01*
X-17020Y408364D01*
X-16983Y408500D01*
X-16942Y408635D01*
X-16897Y408769D01*
X-16848Y408901D01*
X-16796Y409032D01*
X-16740Y409161D01*
X-16680Y409288D01*
X-16617Y409414D01*
X-16551Y409538D01*
X-16480Y409661D01*
X-16407Y409781D01*
X-16330Y409899D01*
X-16250Y410015D01*
X-16166Y410128D01*
X-16080Y410239D01*
X-15990Y410348D01*
X-15897Y410454D01*
X-15802Y410557D01*
X-15703Y410658D01*
X-15602Y410756D01*
X-15498Y410851D01*
X-15391Y410943D01*
X-15282Y411032D01*
X-15170Y411117D01*
X-15056Y411200D01*
X-14940Y411280D01*
X-14821Y411356D01*
X-14700Y411428D01*
X-14578Y411498D01*
X-14453Y411563D01*
X-14327Y411626D01*
X-14199Y411684D01*
X-14069Y411739D01*
X-13938Y411791D01*
X-13805Y411838D01*
X-13671Y411882D01*
X-13536Y411923D01*
X-13400Y411959D01*
X-13263Y411991D01*
X-13125Y412020D01*
X-12987Y412045D01*
X-12847Y412065D01*
X-12707Y412082D01*
X-12567Y412095D01*
X-12426Y412104D01*
X-12286Y412109D01*
X-12145Y412110D01*
X-12004Y412107D01*
X-11863Y412100D01*
X-11723Y412089D01*
X-11583Y412074D01*
X-11443Y412055D01*
X-11304Y412033D01*
X-11166Y412006D01*
X-11028Y411976D01*
X-10892Y411941D01*
X-10756Y411903D01*
X-10622Y411861D01*
X-10488Y411815D01*
X-10356Y411766D01*
X-10226Y411712D01*
X-10097Y411655D01*
X-9970Y411595D01*
X-9844Y411531D01*
X-9721Y411463D01*
X-9599Y411392D01*
X-9479Y411318D01*
X-9362Y411240D01*
X-9247Y411159D01*
X-9134Y411075D01*
X-9023Y410988D01*
X-8915Y410897D01*
X-8810Y410804D01*
X-8707Y410707D01*
X-8607Y410608D01*
X-8510Y410506D01*
X-8416Y410401D01*
X-8325Y410294D01*
X-8237Y410184D01*
X-8152Y410072D01*
X-8070Y409957D01*
X-7991Y409840D01*
X-7916Y409721D01*
X-7844Y409600D01*
X-7776Y409477D01*
X-7711Y409352D01*
X-7649Y409225D01*
X-7592Y409096D01*
X-7537Y408966D01*
X-7487Y408835D01*
X-7440Y408702D01*
X-7397Y408568D01*
X-7358Y408432D01*
X-7323Y408296D01*
X-7291Y408159D01*
X-7264Y408021D01*
X-7240Y407882D01*
X-7220Y407742D01*
X-7204Y407602D01*
X-7192Y407462D01*
X-7184Y407321D01*
X-7180Y407180D01*
X-7180Y407040D01*
X-7184Y406899D01*
X-7192Y406758D01*
X-7204Y406618D01*
X-7220Y406478D01*
X-7240Y406338D01*
X-7264Y406199D01*
X-7291Y406061D01*
X-7323Y405924D01*
X-7358Y405788D01*
X-7397Y405652D01*
X-7440Y405518D01*
X-7487Y405385D01*
X-7537Y405254D01*
X-7592Y405124D01*
X-7649Y404995D01*
X-7711Y404868D01*
X-7776Y404743D01*
X-7844Y404620D01*
X-7916Y404499D01*
X-7991Y404380D01*
X-8070Y404263D01*
X-8152Y404148D01*
X-8237Y404036D01*
X-8325Y403926D01*
X-8416Y403819D01*
X-8510Y403714D01*
X-8607Y403612D01*
X-8707Y403513D01*
X-8810Y403416D01*
X-8915Y403323D01*
X-9023Y403232D01*
X-9134Y403145D01*
X-9247Y403061D01*
X-9362Y402980D01*
X-9479Y402902D01*
X-9599Y402828D01*
X-9721Y402757D01*
X-9844Y402689D01*
X-9970Y402625D01*
X-10097Y402565D01*
X-10226Y402508D01*
X-10356Y402454D01*
X-10488Y402405D01*
X-10622Y402359D01*
X-10756Y402317D01*
X-10892Y402279D01*
X-11028Y402244D01*
X-11166Y402214D01*
X-11304Y402187D01*
X-11443Y402165D01*
X-11583Y402146D01*
X-11723Y402131D01*
X-11863Y402120D01*
X-12004Y402113D01*
X-12145Y402110D01*
X-12286Y402111D01*
X-12426Y402116D01*
X-12567Y402125D01*
X-12707Y402138D01*
X-12847Y402155D01*
X-12987Y402175D01*
X-13125Y402200D01*
X-13263Y402229D01*
X-13400Y402261D01*
X-13536Y402297D01*
X-13671Y402338D01*
X-13805Y402382D01*
X-13938Y402429D01*
X-14069Y402481D01*
X-14199Y402536D01*
X-14327Y402594D01*
X-14453Y402657D01*
X-14578Y402722D01*
X-14700Y402792D01*
X-14821Y402864D01*
X-14940Y402940D01*
X-15056Y403020D01*
X-15170Y403103D01*
X-15282Y403188D01*
X-15391Y403277D01*
X-15498Y403369D01*
X-15602Y403464D01*
X-15703Y403562D01*
X-15802Y403663D01*
X-15897Y403766D01*
X-15990Y403872D01*
X-16080Y403981D01*
X-16166Y404092D01*
X-16250Y404205D01*
X-16330Y404321D01*
X-16407Y404439D01*
X-16480Y404559D01*
X-16551Y404682D01*
X-16617Y404806D01*
X-16680Y404932D01*
X-16740Y405059D01*
X-16796Y405188D01*
X-16848Y405319D01*
X-16897Y405451D01*
X-16942Y405585D01*
X-16983Y405720D01*
X-17020Y405856D01*
X-17054Y405992D01*
X-17083Y406130D01*
X-17109Y406269D01*
X-17130Y406408D01*
X-17148Y406548D01*
X-17162Y406688D01*
X-17172Y406828D01*
X-17178Y406969D01*
X-17180Y407110D01*
X8220Y407110D02*
X8222Y407251D01*
X8228Y407392D01*
X8238Y407532D01*
X8252Y407672D01*
X8270Y407812D01*
X8291Y407951D01*
X8317Y408090D01*
X8346Y408228D01*
X8380Y408364D01*
X8417Y408500D01*
X8458Y408635D01*
X8503Y408769D01*
X8552Y408901D01*
X8604Y409032D01*
X8660Y409161D01*
X8720Y409288D01*
X8783Y409414D01*
X8849Y409538D01*
X8920Y409661D01*
X8993Y409781D01*
X9070Y409899D01*
X9150Y410015D01*
X9234Y410128D01*
X9320Y410239D01*
X9410Y410348D01*
X9503Y410454D01*
X9598Y410557D01*
X9697Y410658D01*
X9798Y410756D01*
X9902Y410851D01*
X10009Y410943D01*
X10118Y411032D01*
X10230Y411117D01*
X10344Y411200D01*
X10460Y411280D01*
X10579Y411356D01*
X10700Y411428D01*
X10822Y411498D01*
X10947Y411563D01*
X11073Y411626D01*
X11201Y411684D01*
X11331Y411739D01*
X11462Y411791D01*
X11595Y411838D01*
X11729Y411882D01*
X11864Y411923D01*
X12000Y411959D01*
X12137Y411991D01*
X12275Y412020D01*
X12413Y412045D01*
X12553Y412065D01*
X12693Y412082D01*
X12833Y412095D01*
X12974Y412104D01*
X13114Y412109D01*
X13255Y412110D01*
X13396Y412107D01*
X13537Y412100D01*
X13677Y412089D01*
X13817Y412074D01*
X13957Y412055D01*
X14096Y412033D01*
X14234Y412006D01*
X14372Y411976D01*
X14508Y411941D01*
X14644Y411903D01*
X14778Y411861D01*
X14912Y411815D01*
X15044Y411766D01*
X15174Y411712D01*
X15303Y411655D01*
X15430Y411595D01*
X15556Y411531D01*
X15679Y411463D01*
X15801Y411392D01*
X15921Y411318D01*
X16038Y411240D01*
X16153Y411159D01*
X16266Y411075D01*
X16377Y410988D01*
X16485Y410897D01*
X16590Y410804D01*
X16693Y410707D01*
X16793Y410608D01*
X16890Y410506D01*
X16984Y410401D01*
X17075Y410294D01*
X17163Y410184D01*
X17248Y410072D01*
X17330Y409957D01*
X17409Y409840D01*
X17484Y409721D01*
X17556Y409600D01*
X17624Y409477D01*
X17689Y409352D01*
X17751Y409225D01*
X17808Y409096D01*
X17863Y408966D01*
X17913Y408835D01*
X17960Y408702D01*
X18003Y408568D01*
X18042Y408432D01*
X18077Y408296D01*
X18109Y408159D01*
X18136Y408021D01*
X18160Y407882D01*
X18180Y407742D01*
X18196Y407602D01*
X18208Y407462D01*
X18216Y407321D01*
X18220Y407180D01*
X18220Y407040D01*
X18216Y406899D01*
X18208Y406758D01*
X18196Y406618D01*
X18180Y406478D01*
X18160Y406338D01*
X18136Y406199D01*
X18109Y406061D01*
X18077Y405924D01*
X18042Y405788D01*
X18003Y405652D01*
X17960Y405518D01*
X17913Y405385D01*
X17863Y405254D01*
X17808Y405124D01*
X17751Y404995D01*
X17689Y404868D01*
X17624Y404743D01*
X17556Y404620D01*
X17484Y404499D01*
X17409Y404380D01*
X17330Y404263D01*
X17248Y404148D01*
X17163Y404036D01*
X17075Y403926D01*
X16984Y403819D01*
X16890Y403714D01*
X16793Y403612D01*
X16693Y403513D01*
X16590Y403416D01*
X16485Y403323D01*
X16377Y403232D01*
X16266Y403145D01*
X16153Y403061D01*
X16038Y402980D01*
X15921Y402902D01*
X15801Y402828D01*
X15679Y402757D01*
X15556Y402689D01*
X15430Y402625D01*
X15303Y402565D01*
X15174Y402508D01*
X15044Y402454D01*
X14912Y402405D01*
X14778Y402359D01*
X14644Y402317D01*
X14508Y402279D01*
X14372Y402244D01*
X14234Y402214D01*
X14096Y402187D01*
X13957Y402165D01*
X13817Y402146D01*
X13677Y402131D01*
X13537Y402120D01*
X13396Y402113D01*
X13255Y402110D01*
X13114Y402111D01*
X12974Y402116D01*
X12833Y402125D01*
X12693Y402138D01*
X12553Y402155D01*
X12413Y402175D01*
X12275Y402200D01*
X12137Y402229D01*
X12000Y402261D01*
X11864Y402297D01*
X11729Y402338D01*
X11595Y402382D01*
X11462Y402429D01*
X11331Y402481D01*
X11201Y402536D01*
X11073Y402594D01*
X10947Y402657D01*
X10822Y402722D01*
X10700Y402792D01*
X10579Y402864D01*
X10460Y402940D01*
X10344Y403020D01*
X10230Y403103D01*
X10118Y403188D01*
X10009Y403277D01*
X9902Y403369D01*
X9798Y403464D01*
X9697Y403562D01*
X9598Y403663D01*
X9503Y403766D01*
X9410Y403872D01*
X9320Y403981D01*
X9234Y404092D01*
X9150Y404205D01*
X9070Y404321D01*
X8993Y404439D01*
X8920Y404559D01*
X8849Y404682D01*
X8783Y404806D01*
X8720Y404932D01*
X8660Y405059D01*
X8604Y405188D01*
X8552Y405319D01*
X8503Y405451D01*
X8458Y405585D01*
X8417Y405720D01*
X8380Y405856D01*
X8346Y405992D01*
X8317Y406130D01*
X8291Y406269D01*
X8270Y406408D01*
X8252Y406548D01*
X8238Y406688D01*
X8228Y406828D01*
X8222Y406969D01*
X8220Y407110D01*
D15*
X-108700Y279830D03*
X-108700Y256590D03*
D16*
X-64250Y187400D03*
D17*
X-38850Y187400D03*
X-13450Y187400D03*
X11950Y187400D03*
X37350Y187400D03*
X62750Y187400D03*
X62750Y263600D03*
X37350Y263600D03*
X11950Y263600D03*
X-13450Y263600D03*
X-38850Y263600D03*
X-64250Y263600D03*
D18*
X-134590Y-304660D03*
X-134590Y-296660D03*
X-134590Y-288660D03*
X-134590Y-280660D03*
X-164090Y-280660D03*
X-164090Y-288660D03*
X-164090Y-296660D03*
X-164090Y-304660D03*
D19*
X-154840Y-292660D03*
X-143840Y-292660D03*
D20*
X107130Y-390560D03*
X107130Y-397060D03*
X107130Y-403560D03*
X107130Y-410060D03*
X130130Y-410060D03*
X130130Y-403560D03*
X130130Y-397060D03*
X130130Y-390560D03*
D21*
X118630Y-400310D03*
D22*
X179510Y259900D03*
X198510Y259900D03*
X189010Y280900D03*
D23*
X-172200Y-161020D03*
X-159500Y-161020D03*
X-146800Y-161020D03*
X-134100Y-161020D03*
X-134100Y-106800D03*
X-146800Y-106800D03*
X-159500Y-106800D03*
X-172200Y-106800D03*
X173240Y-109340D03*
X160540Y-109340D03*
X147840Y-109340D03*
X135140Y-109340D03*
X135140Y-163560D03*
X147840Y-163560D03*
X160540Y-163560D03*
X173240Y-163560D03*
D24*
X-15750Y144060D03*
X-15750Y140060D03*
X-15750Y136060D03*
X-15750Y132060D03*
X-15750Y128060D03*
X-15750Y124060D03*
D25*
X-10750Y119060D03*
X-6750Y119060D03*
X-2750Y119060D03*
X1250Y119060D03*
X5250Y119060D03*
X9250Y119060D03*
D24*
X14250Y124060D03*
X14250Y128060D03*
X14250Y132060D03*
X14250Y136060D03*
X14250Y140060D03*
X14250Y144060D03*
D25*
X9250Y149060D03*
X5250Y149060D03*
X1250Y149060D03*
X-2750Y149060D03*
X-6750Y149060D03*
X-10750Y149060D03*
D26*
X-750Y134060D03*
D27*
X-138000Y-424070D03*
D28*
X-142000Y-415070D03*
X-147000Y-415070D03*
X-152000Y-415070D03*
X-157000Y-415070D03*
X-162000Y-415070D03*
X-167000Y-415070D03*
X-172000Y-415070D03*
X-177000Y-415070D03*
D27*
X-181000Y-424070D03*
X-181000Y-439070D03*
D28*
X-177000Y-448070D03*
X-172000Y-448070D03*
X-167000Y-448070D03*
X-162000Y-448070D03*
X-157000Y-448070D03*
X-152000Y-448070D03*
X-147000Y-448070D03*
X-142000Y-448070D03*
D27*
X-138000Y-439070D03*
D29*
X-159500Y-431570D03*
D30*
X55480Y-284440D03*
X55480Y-279440D03*
X55480Y-274440D03*
X55480Y-269440D03*
X55480Y-264440D03*
X55480Y-259440D03*
X55480Y-254440D03*
X55480Y-249440D03*
X55480Y-244440D03*
X55480Y-239440D03*
X55480Y-234440D03*
X55480Y-229440D03*
X55480Y-224440D03*
X55480Y-219440D03*
X55480Y-214440D03*
X55480Y-209440D03*
D31*
X35480Y-189440D03*
X30480Y-189440D03*
X25480Y-189440D03*
X20480Y-189440D03*
X15480Y-189440D03*
X10480Y-189440D03*
X5480Y-189440D03*
X480Y-189440D03*
X-4520Y-189440D03*
X-9520Y-189440D03*
X-14520Y-189440D03*
X-19520Y-189440D03*
X-24520Y-189440D03*
X-29520Y-189440D03*
X-34520Y-189440D03*
X-39520Y-189440D03*
D30*
X-59520Y-209440D03*
X-59520Y-214440D03*
X-59520Y-219440D03*
X-59520Y-224440D03*
X-59520Y-229440D03*
X-59520Y-234440D03*
X-59520Y-239440D03*
X-59520Y-244440D03*
X-59520Y-249440D03*
X-59520Y-254440D03*
X-59520Y-259440D03*
X-59520Y-264440D03*
X-59520Y-269440D03*
X-59520Y-274440D03*
X-59520Y-279440D03*
X-59520Y-284440D03*
D31*
X-39520Y-304440D03*
X-34520Y-304440D03*
X-29520Y-304440D03*
X-24520Y-304440D03*
X-19520Y-304440D03*
X-14520Y-304440D03*
X-9520Y-304440D03*
X-4520Y-304440D03*
X480Y-304440D03*
X5480Y-304440D03*
X10480Y-304440D03*
X15480Y-304440D03*
X20480Y-304440D03*
X25480Y-304440D03*
X30480Y-304440D03*
X35480Y-304440D03*
D32*
X-7100Y-460300D03*
X17900Y-460300D03*
D33*
X-215670Y111640D03*
D34*
X-190270Y111640D03*
X-164870Y111640D03*
X-215670Y137040D03*
X-190270Y137040D03*
X-164870Y137040D03*
D33*
X178320Y109930D03*
D34*
X203720Y109930D03*
X229120Y109930D03*
X178320Y135330D03*
X203720Y135330D03*
X229120Y135330D03*
D35*
X-32500Y-417120D03*
X-32500Y-391720D03*
X-7100Y-417120D03*
X-7100Y-391720D03*
X18300Y-417120D03*
X18300Y-391720D03*
X43700Y-417120D03*
X43700Y-391720D03*
D36*
X262140Y-374702D02*
X262140Y-360478D01*
X236740Y-360478D02*
X236740Y-374702D01*
X296938Y-396800D02*
X311162Y-396800D01*
X311162Y-371400D02*
X296938Y-371400D01*
D37*
X219720Y181050D03*
X187720Y181050D03*
D38*
X223590Y-316950D03*
X223590Y-284950D03*
X224040Y-240080D03*
X224040Y-208080D03*
D37*
X-228840Y178510D03*
X-196840Y178510D03*
D38*
X-202680Y-219760D03*
X-202680Y-187760D03*
D37*
X-209790Y-367590D03*
X-177790Y-367590D03*
X-155180Y179780D03*
X-123180Y179780D03*
D39*
X-180330Y233480D03*
X-180330Y278480D03*
D40*
X-215330Y233480D03*
D41*
X-230290Y-269960D03*
X-230290Y-254960D03*
D42*
X-236970Y-159760D03*
X-224270Y-159760D03*
X-211570Y-159760D03*
X-198870Y-159760D03*
X-198870Y-105520D03*
X-211570Y-105520D03*
X-224270Y-105520D03*
X-236970Y-105520D03*
D43*
X79690Y322630D03*
X79690Y303630D03*
X101690Y313130D03*
D44*
X54520Y458340D03*
X73520Y458340D03*
X64020Y480340D03*
X-57240Y298320D03*
X-38240Y298320D03*
X-47740Y320320D03*
X-73750Y457070D03*
X-54750Y457070D03*
X-64250Y479070D03*
X34200Y302130D03*
X53200Y302130D03*
X43700Y324130D03*
X-115710Y236500D03*
X-134710Y236500D03*
X-125210Y214500D03*
D42*
X239280Y-108060D03*
X226580Y-108060D03*
X213880Y-108060D03*
X201180Y-108060D03*
X201180Y-162300D03*
X213880Y-162300D03*
X226580Y-162300D03*
X239280Y-162300D03*
D45*
X13540Y461710D03*
X-11860Y461710D03*
X196810Y447305D03*
X213170Y427875D03*
X271030Y362660D03*
X271030Y337260D03*
X-262510Y339760D03*
X-262510Y365160D03*
X-185002Y447224D03*
X-203518Y429836D03*
D46*
X56606Y-366630D03*
X72910Y-366630D03*
X85536Y-367020D03*
X101840Y-367020D03*
D47*
X-212280Y-465726D03*
X-212280Y-482030D03*
X-108650Y-429334D03*
X-108650Y-413030D03*
X-108610Y-441456D03*
X-108610Y-457760D03*
D46*
X-229556Y-476810D03*
X-245860Y-476810D03*
X-245184Y-457630D03*
X-228880Y-457630D03*
D47*
X-62830Y-452194D03*
X-62830Y-435890D03*
X-76140Y-90970D03*
X-76140Y-107274D03*
X-30510Y-91110D03*
X-30510Y-107414D03*
X34440Y-90970D03*
X34440Y-107274D03*
X73350Y-92240D03*
X73350Y-108544D03*
D46*
X184340Y-342070D03*
X168036Y-342070D03*
X167046Y-314410D03*
X183350Y-314410D03*
D47*
X-282950Y-358090D03*
X-282950Y-374394D03*
X-260650Y-359500D03*
X-260650Y-375804D03*
X-81160Y-395654D03*
X-81160Y-379350D03*
X-9190Y-339180D03*
X-9190Y-355484D03*
X-32050Y-339840D03*
X-32050Y-356144D03*
X39890Y-338380D03*
X39890Y-354684D03*
X15690Y-339930D03*
X15690Y-356234D03*
X-229840Y-303694D03*
X-229840Y-287390D03*
X156620Y476340D03*
X156620Y460036D03*
D46*
X-132790Y320150D03*
X-149094Y320150D03*
D47*
X-83930Y317640D03*
X-83930Y301336D03*
D46*
X-130816Y477090D03*
X-147120Y477090D03*
X-52640Y426970D03*
X-68944Y426970D03*
X-108840Y-201470D03*
X-92536Y-201470D03*
D47*
X1940Y345500D03*
X1940Y361804D03*
X232480Y279434D03*
X232480Y263130D03*
X-245560Y313304D03*
X-245560Y297000D03*
D46*
X-131246Y349180D03*
X-147550Y349180D03*
X137646Y313560D03*
X153950Y313560D03*
X131874Y350950D03*
X115570Y350950D03*
D47*
X4840Y-153306D03*
X4840Y-169610D03*
D48*
X198460Y-472110D03*
X198460Y-456110D03*
X239460Y-472110D03*
X239460Y-456110D03*
D49*
X218960Y-476110D03*
D35*
X84500Y-472200D03*
X109900Y-472200D03*
X135300Y-472200D03*
D48*
X226400Y-421310D03*
X226400Y-405310D03*
X267400Y-421310D03*
X267400Y-405310D03*
D49*
X246900Y-425310D03*
D38*
X173260Y-381910D03*
X173260Y-413910D03*
D50*
X-57740Y-480770D03*
X-83140Y-480770D03*
X-108540Y-480770D03*
X-133940Y-480770D03*
X-159340Y-480770D03*
X-184740Y-480770D03*
D51*
X-125972Y-304344D03*
X-119876Y-289104D03*
X-95492Y-307392D03*
X145300Y-366828D03*
X204736Y-318060D03*
X-180836Y-287580D03*
X-34532Y-456744D03*
X-34532Y-432360D03*
X160540Y-383592D03*
X-43676Y166572D03*
X-122924Y-351588D03*
X-65012Y-426264D03*
X-83300Y-426264D03*
X-217412Y-436932D03*
X34048Y-459792D03*
X-177788Y-339396D03*
X-173176Y-298692D03*
X-113780Y-322632D03*
X-43676Y-438456D03*
X-104636Y-377496D03*
X210832Y-307392D03*
X-46724Y-188520D03*
X-14720Y-147372D03*
X186448Y-421692D03*
X-31484Y-368352D03*
X194068Y-240336D03*
X-78728Y-257100D03*
X137680Y-315012D03*
X-72632Y-284532D03*
X9664Y-211380D03*
X19570Y93166D03*
X-21324Y92912D03*
X40144Y107136D03*
X181876Y-246432D03*
X70624Y-170232D03*
X-87872Y-63552D03*
X38620Y-135180D03*
X157492Y-340920D03*
X-54344Y367740D03*
X90436Y303732D03*
X-237224Y-240336D03*
X-180836Y-86412D03*
X66052Y-379020D03*
X174256Y-299772D03*
X189496Y-284532D03*
X112280Y379170D03*
X105676Y116280D03*
X175780Y299160D03*
X-189980Y-174804D03*
X-189980Y-84888D03*
X-253988Y322020D03*
X114820Y104088D03*
X-110732Y107136D03*
X-107684Y-392736D03*
X-191504Y-452172D03*
X-225032Y-138228D03*
X-208990Y-119876D03*
X-206958Y-137656D03*
X-223508Y-129084D03*
X215404Y-176328D03*
X166636Y-176328D03*
X210832Y81228D03*
X198640Y81228D03*
X256552Y-158040D03*
X-220460Y-92508D03*
X-234176Y-415596D03*
X-122924Y-171756D03*
X18808Y-284532D03*
X-81776Y-179376D03*
X18808Y-266244D03*
X181876Y-138228D03*
X236740Y-138228D03*
X96532Y52272D03*
X96532Y40080D03*
X146824Y-141276D03*
X75196Y-298248D03*
X55384Y-318060D03*
X11188Y-318060D03*
X134632Y-122988D03*
X6616Y-290628D03*
X1345Y105683D03*
X-29210Y119380D03*
X5854Y20268D03*
X96532Y-78792D03*
X110248Y-147372D03*
X-23864Y-208332D03*
X-6846Y49732D03*
X69100Y-161088D03*
X-40628Y-83364D03*
X9664Y-202236D03*
X-31484Y148284D03*
X-97016Y108660D03*
X-95492Y-14784D03*
X-135116Y-141276D03*
X-110732Y-165660D03*
X-31484Y-234240D03*
X98056Y-118416D03*
X104152Y-182424D03*
X69100Y-217476D03*
X38620Y-225096D03*
X23380Y-84888D03*
X43192Y-183948D03*
X-191504Y-424740D03*
X-180836Y-406452D03*
X-162548Y-406452D03*
X-129020Y-424740D03*
X-119876Y-415596D03*
X-136640Y-430836D03*
X-135116Y-449124D03*
X-200648Y-478080D03*
X-124448Y-406452D03*
X-159500Y-458268D03*
X-200648Y-458268D03*
X-183884Y-446076D03*
X75196Y-254052D03*
X111772Y-222048D03*
X195592Y-251004D03*
X125488Y-124512D03*
X128536Y-222048D03*
X184924Y-302820D03*
X98056Y-261672D03*
X137680Y-214428D03*
X194068Y-129084D03*
X108724Y254964D03*
X78244Y254964D03*
X-173216Y-244908D03*
X-37580Y-14784D03*
X-33008Y105612D03*
X-75680Y-203760D03*
X-72632Y-170232D03*
X-116280Y123964D03*
X-93968Y-164136D03*
X-54344Y-94032D03*
X119392Y-278436D03*
X256552Y-92508D03*
X148348Y155904D03*
X88912Y215340D03*
X40144Y-263196D03*
X8140Y-46788D03*
X98056Y-127560D03*
X66052Y-132132D03*
X5092Y-116892D03*
X37096Y-251004D03*
X201688Y-263196D03*
X163588Y261060D03*
X128536Y296112D03*
X82816Y335736D03*
X46240Y392124D03*
X-170168Y347928D03*
X81292Y-240336D03*
X116344Y-133656D03*
X87388Y-54408D03*
X-119876Y81482D03*
X-180836Y168096D03*
X55384Y-190044D03*
X-111518Y86158D03*
X210832Y-87936D03*
X43192Y-193092D03*
X-7100Y-63552D03*
X-25388Y-17832D03*
X-127496Y72846D03*
X-60440Y437844D03*
X241312Y332688D03*
X81292Y-8688D03*
X189496Y125424D03*
X206260Y250392D03*
X166636Y354024D03*
X-8624Y-202236D03*
X-52820Y-63552D03*
X-61964Y280872D03*
X85864Y280872D03*
X-14720Y-173280D03*
X-237224Y-173280D03*
X-95492Y-23928D03*
X-107684Y245820D03*
X-226556Y-313488D03*
X72148Y471372D03*
X-78728Y-241860D03*
X-115304Y-211380D03*
X-177788Y-183948D03*
X-171692Y-89460D03*
X-156452Y478992D03*
X-66536Y-202236D03*
X-46724Y-222048D03*
X21856Y300684D03*
X-147308Y163524D03*
X-74156Y-78792D03*
X-226556Y-322632D03*
X-186932Y297636D03*
X-87872Y-324156D03*
X-45200Y-263196D03*
X-17768Y-263196D03*
X21856Y-223572D03*
X-84824Y-133656D03*
X58432Y-60504D03*
X15760Y-40692D03*
X-72632Y-273864D03*
X-100064Y-211380D03*
X-250138Y-347968D03*
X-220460Y-269292D03*
X-171692Y-145848D03*
X-159500Y-145848D03*
X-39104Y-327204D03*
X-20816Y-278436D03*
X104152Y-246432D03*
X-5576Y-272340D03*
X85864Y-261672D03*
X-33008Y-476556D03*
X-14720Y-290628D03*
X66052Y-296724D03*
X215404Y-400356D03*
X-43676Y-479604D03*
X-80252Y-467412D03*
X-23864Y-327204D03*
X21134Y-445758D03*
X-43676Y-470460D03*
X-14720Y-318060D03*
X-165596Y-325680D03*
X-232652Y-368352D03*
X21856Y-232716D03*
X99580Y-430836D03*
X189496Y-430836D03*
X73672Y-264720D03*
X154444Y261060D03*
X119392Y296112D03*
X90436Y325068D03*
X-106160Y291540D03*
X-68060Y-71172D03*
X-29960Y-74220D03*
X44716Y-84888D03*
X73672Y-81840D03*
X155968Y149808D03*
M02*
