M48
;GenerationSoftware,Autodesk,EAGLE,9.6.2*%
;CreationDate,2023-07-23T15:15:33Z*%
FMAT,2
ICI,OFF
METRIC,TZ,000.000
T7C0.350
T6C0.840
T5C0.914
T4C1.000
T3C1.016
T2C1.090
T1C1.100
%
G90
M71
T1
X-1345Y18740
X1195Y18740
X3735Y18740
X6275Y18740
X6275Y26360
X3735Y26360
X1195Y26360
X-1345Y26360
X-3885Y26360
X-6425Y26360
X-6425Y18740
X-3885Y18740
T2
X1354Y46171
X-18500Y44722
X-20352Y42984
X-26251Y36516
X-26251Y33976
X27103Y33726
X27103Y36266
X21317Y42788
X19681Y44730
X-1186Y46171
T3
X-18474Y-48077
X-19027Y13704
X4370Y-41712
X4370Y-39172
X8450Y-47220
X10990Y-47220
X13530Y-47220
X-5774Y-48077
X-8314Y-48077
X-21567Y13704
X-10854Y-48077
X-13394Y-48077
X-21567Y11164
X-19027Y11164
X-16487Y11164
X-15934Y-48077
X-16487Y13704
X17832Y10993
X20372Y10993
X22912Y10993
X17832Y13533
X20372Y13533
X22912Y13533
X-3250Y-41712
X-3250Y-39172
X-710Y-41712
X-710Y-39172
X1830Y-41712
X1830Y-39172
T4
X-25858Y12508
X-25858Y27492
X26112Y27746
X26112Y12254
X26112Y-12254
X26112Y-28127
X-25985Y-27492
X20461Y33730
X20461Y36270
X-11623Y42719
X-13419Y40923
X-19948Y36262
X-19948Y33722
X14090Y41274
X-25985Y-12254
X12430Y43196
X1322Y40711
X-1218Y40711
T5
X26214Y-36759
X23674Y-36759
X30405Y-39680
X30405Y-37140
T6
X1790Y-46030
X-710Y-46030
T7
X7520Y-29825
X5538Y-31806
X1119Y-31806
X13463Y-12299
X662Y-29063
X134Y10568
X-2921Y11938
X585Y2027
X9653Y-7879
X11025Y-14737
X-2386Y-20833
X-685Y4973
X6910Y-16109
X-4063Y-8336
X966Y-20224
X-3148Y14828
X-9702Y10866
X-9549Y-1478
X-13512Y-14128
X-11073Y-16566
X-3148Y-23424
X9806Y-11842
X10415Y-18242
X6910Y-21748
X3862Y-22510
X2338Y-8489
X4319Y-18395
X-19150Y-42474
X-18084Y-40645
X-16255Y-40645
X-12902Y-42474
X-11988Y-41560
X-13664Y-43084
X-13512Y-44912
X-20065Y-47808
X-12445Y-40645
X-15950Y-45827
X-20065Y-45827
X-18388Y-44608
X7520Y-25405
X11177Y-22205
X19559Y-25100
X12549Y-12451
X12854Y-22205
X18492Y-30282
X9806Y-26167
X13768Y-21443
X19407Y-12908
X10872Y25496
X7824Y25496
X-17322Y-24491
X-3758Y-1478
X-3301Y10561
X-7568Y-20376
X-7263Y-17023
X-11628Y12396
X-9397Y-16414
X-5434Y-9403
X11939Y-27844
X25655Y-9251
X14835Y15590
X8891Y21534
X4014Y-26320
X814Y-4679
X9806Y-12756
X6605Y-13213
X509Y-11689
X3710Y-25100
X20169Y-26320
X16359Y26106
X12854Y29611
X8282Y33574
X4624Y39212
X-17017Y34793
X8129Y-24034
X11634Y-13366
X8739Y-5441
X-11988Y8148
X-5434Y36774
X5538Y-19004
X-11152Y8616
X21083Y-8794
X4319Y-19309
X-710Y-6355
X-2539Y-1783
X-12750Y7285
X-6044Y43784
X24131Y33269
X8129Y-869
X18950Y12542
X20626Y25039
X16664Y35402
X-862Y-20224
X-5282Y-6355
X-6196Y28087
X8586Y28087
X-1472Y-17328
X-23722Y-17328
X-9549Y-2393
X-10768Y24582
X-22656Y-31349
X7215Y47137
X-7873Y-24186
X-11530Y-21138
X-17779Y-18395
X-17169Y-8946
X-15645Y47899
X-6654Y-20224
X-4672Y-22205
X2186Y30068
X-14731Y16352
X-7416Y-7879
X-22656Y-32263
X-18693Y29764
X-8787Y-32416
X-4520Y-26320
X-1777Y-26320
X2186Y-22357
X-8482Y-13366
X5843Y-6050
X1576Y-4069
X-7263Y-27386
X-10006Y-21138
X-25014Y-34797
X-22046Y-26929
X-17169Y-14585
X-15950Y-14585
X-3910Y-32720
X-2082Y-27844
X10415Y-24643
X-558Y-27234
X8586Y-26167
X-3301Y-47656
X-1472Y-29063
X6605Y-29672
X21540Y-40036
X-4368Y-47960
X-8025Y-46741
X-2386Y-32720
X2113Y-44576
X-4368Y-47046
X-1472Y-31806
X-16560Y-32568
X-23265Y-36835
X2186Y-23272
X9958Y-43084
X18950Y-43084
X7367Y-26472
X15444Y26106
X11939Y29611
X9044Y32507
X-10616Y29154
X-6806Y-7117
X-2996Y-7422
X4472Y-8489
X-12597Y-30434
X15597Y14981
X-11988Y-28910
X-9549Y-30739
X14530Y-36683
X20474Y-31806
X-18084Y-28758
X-3453Y-45674
X-3453Y-43236
X16054Y-38359
X-4368Y16657
X-12292Y-35159
X-6501Y-42626
X-8330Y-42626
X-21741Y-43693
X3405Y-45979
X-17779Y-33940
X-17318Y-29869
X-11378Y-32263
X-4368Y-43846
X-10464Y-37750
X21083Y-30739
X-4672Y-18852
X-1472Y-14737
X18645Y-42169
X-3148Y-36835
X19407Y-24034
X-7873Y-25710
X13768Y-31501
X-7263Y-28453
X966Y-21138
X1957Y9317
X-2132Y9291
X4014Y10714
X18188Y-24643
X7062Y-17023
X-8787Y-6355
X3862Y-13518
X-18084Y16810
X15749Y-34092
X9044Y30373
X-23722Y-24034
X-18084Y-8641
X6605Y-37902
X17426Y-29977
X18950Y-28453
X11228Y37917
X10568Y11628
X17578Y29916
X-18998Y-17480
X-18998Y-8489
X-25399Y32202
X11482Y10409
X-11073Y10714
X-10768Y-39274
X-19150Y-45217
X-22503Y-13823
X-20899Y-11988
X-20696Y-13766
X-22351Y-12908
X21540Y-17633
X16664Y-17633
X21083Y8123
X19864Y8123
X25655Y-15804
X-22046Y-9251
X-23418Y-41560
X-12292Y-17176
X1881Y-28453
X-8178Y-17938
X1881Y-26624
X18188Y-13823
X23674Y-13823
X9653Y5227
X9653Y4008
X14682Y-14128
X7367Y-8184
M30